<?xml version="1.0" encoding="iso-8859-1"?>
<!-- Generator: Adobe Illustrator 16.0.0, SVG Export Plug-In . SVG Version: 6.00 Build 0)  -->
<!DOCTYPE svg PUBLIC "-//W3C//DTD SVG 1.1//EN" "http://www.w3.org/Graphics/SVG/1.1/DTD/svg11.dtd">
<svg version="1.1" id="Capa_1" xmlns="http://www.w3.org/2000/svg" xmlns:xlink="http://www.w3.org/1999/xlink" x="0px" y="0px"
	 width="42.629px" height="42.629px" viewBox="0 0 42.629 42.629" style="enable-background:new 0 0 42.629 42.629;"
	 xml:space="preserve">
<g>
	<g id="_x31_13_92_">
		<path d="M42.629,25.635c-0.238-4.465-3.418-7.646-7.885-7.886c-0.087-0.004-0.168,0.004-0.254,0.002
			c0.1-0.44,0.165-0.887,0.19-1.336c-0.224-4.134-3.166-7.074-7.298-7.297c-2.424-0.13-4.444,1.107-5.741,2.917
			c-1.296-1.706-3.311-2.785-5.746-2.917c-4.123-0.222-7.09,3.5-7.295,7.297c-0.024,0.488,0.008,0.957,0.084,1.411
			c-0.258-0.037-0.521-0.062-0.789-0.077c-4.457-0.24-7.664,3.783-7.885,7.886c-0.227,4.193,3.32,7.279,7.158,7.812v0.073h29.086
			V33.43C39.911,32.811,42.434,29.258,42.629,25.635z"/>
	</g>
</g>
<g>
</g>
<g>
</g>
<g>
</g>
<g>
</g>
<g>
</g>
<g>
</g>
<g>
</g>
<g>
</g>
<g>
</g>
<g>
</g>
<g>
</g>
<g>
</g>
<g>
</g>
<g>
</g>
<g>
</g>
</svg>
